<svg xmlns="http://www.w3.org/2000/svg" width="140" height="26.905" viewBox="0 0 140 26.905">
  <g id="footer-logo" transform="translate(283.241 -675.506)">
    <path id="パス_21" data-name="パス 21" d="M-256.745,686.467l-4-2.989-5,12.954c-1.442,4.179-4.109,5.979-8,5.979a6.726,6.726,0,0,1-4-1l1-1.993c.664.322,1.374,0,2,0,1.746,0,3.048-1.228,4-3.986l5-14.947c-2.127-1.293-3.53-1.993-6-1.993a7.142,7.142,0,0,0-7,4.982c-1.233,4.331.773,7.972,4,7.972.171,0,.772.019,1,0l-1,1.993c-.475.113-.525,0-1,0-4.688,0-8.984-4.815-7-10.961,1.47-4.557,5.9-6.975,11-6.975a14.134,14.134,0,0,1,9,2.989l7,4.982Z" fill="#fff"/>
    <path id="パス_22" data-name="パス 22" d="M-231.074,702.4c-2.3,3.34-5.433,6-9,6-1.707,0-2.919-.5-3-2a6.905,6.905,0,0,1-5,2c-3.416,0-4.371-3.072-3-7,1.285-3.683,4.773-7,8-7a3.186,3.186,0,0,1,3,2v-1h5l-3,8c-.31.905.507,1,1,1a6.532,6.532,0,0,0,5-3Zm-14,2a2.019,2.019,0,0,0,2-1l2-4c-.244-.755-1.183-2-2-2-1.614,0-2.433,2.178-3,4-.686,2.2-.462,3,1,3Z" transform="translate(-9.761 -5.985)" fill="#fff"/>
    <path id="パス_23" data-name="パス 23" d="M-206.8,702.4c-2.3,3.34-5.432,6-9,6-2.486,0-3.119-1-2-4l1-5c.34-.911.455-1,0-1-.575,0-2.15.66-4,4l-2,6h-5l4-13h5v2c1.784-1.952,3.032-3,5-3,2.315,0,2.849,1.722,2,4l-1,5c-.34.911-.493,1,0,1a6.5,6.5,0,0,0,5-3Z" transform="translate(-17.109 -5.985)" fill="#fff"/>
    <path id="パス_24" data-name="パス 24" d="M-186.025,702.128c-2.429,3.51-5.6,6-10,6-3.075,0-6.032-.868-7-4a21.885,21.885,0,0,0,3-3c1.419-2.045,2.558-4.552,4-7h4c-.74.872-1.31,2.1,0,5,1.058,2.345,1.665,3.762,1,5,1.424-.794,2.779-1.236,4-3Zm-10-1a22.075,22.075,0,0,1-1-3c-.681,1.08-1.266,2.951-2,4-.409.584-.613.539-1,1a1.911,1.911,0,0,0,2,1C-196.354,704.128-195.369,703.065-196.025,701.128Z" transform="translate(-24.943 -5.717)" fill="#fff"/>
    <path id="パス_25" data-name="パス 25" d="M-161.978,702.4c-2.3,3.34-6.432,6-10,6-1.707,0-1.919-.5-2-2a6.9,6.9,0,0,1-5,2c-3.416,0-4.371-3.072-3-7,1.285-3.683,3.774-7,7-7,1.363,0,3.371.7,4,2v-1h5l-3,8c-.311.905.507,1,1,1,1.158,0,2.406-.685,4-3Zm-14,2a2.019,2.019,0,0,0,2-1l2-4c-.243-.755-1.183-2-2-2-1.613,0-2.433,2.178-3,4-.685,2.2-.462,3,1,3Z" transform="translate(-31.056 -5.985)" fill="#fff"/>
    <path id="パス_26" data-name="パス 26" d="M-137.691,696.633c-2.429,3.5-6.077,5.979-9,5.979-2.352,0-4.147-1.268-5-5.979l-2,5.979h-5l9-26.9h5l-6,15.943a8.88,8.88,0,0,1,6-2.989c2.543,0,3.763,1.773,3,3.986a5.537,5.537,0,0,1-5,3.986c.559,1.676,1.017,1.993,2,1.993a7.217,7.217,0,0,0,6-2.989Zm-8-2.989c.489-.984-.013-1.993-1-1.993-1.083,0-2.373,1.648-4,3.986A4.47,4.47,0,0,0-145.691,693.643Z" transform="translate(-38.413 -0.201)" fill="#fff"/>
    <path id="パス_27" data-name="パス 27" d="M-112.712,702.563c-2.3,3.34-5.433,6-9,6-2.049,0-3.323-.894-3-3a7.951,7.951,0,0,1-6,3c-2.315,0-2.777-1.742-2-4l3-9h5l-3,8c-.31.905.545,1,1,1,.575,0,2.159.32,4-3l2-6h5l-3,8c-.311.9-.493,1,0,1a6.532,6.532,0,0,0,5-3Z" transform="translate(-46.529 -6.152)" fill="#fff"/>
    <path id="パス_28" data-name="パス 28" d="M-101.027,700.845a4.069,4.069,0,0,1,4-2.988c1.8,0,2.281,1.249,2,2.988-.288,1.776-1.2,2.988-3,2.988C-99.755,703.833-101.335,702.621-101.027,700.845Zm6-4.98h-3l4-15.936h7Z" transform="translate(-56.213 -1.422)" fill="#fff"/>
  </g>
</svg>
