<svg xmlns="http://www.w3.org/2000/svg" width="180" height="35" viewBox="0 0 180 35">
  <g id="header-logo" transform="translate(-212 -80)">
    <path id="パス_147" data-name="パス 147" d="M247.5,90.66l-8.69-6.26c-3.429-2.468-7.325-4.4-12.164-4.4-6.508,0-12.114,3.529-13.989,9.352-2.528,7.858,2.666,13.973,8.642,13.973a8.392,8.392,0,0,0,1.888-.218l.967-3.069c-.291.024-.63.048-.847.048-4.112,0-7.354-4.061-5.782-9.6a9.274,9.274,0,0,1,8.83-6.647,15.426,15.426,0,0,1,8.49,2.326l-6.818,19.817c-1.215,3.526-3.1,5.291-5.325,5.291a5.514,5.514,0,0,1-2.443-.6l-1.4,2.828a11.16,11.16,0,0,0,5.831,1.5c4.959,0,8.2-2.441,10.04-7.783l5.885-17.1,5.679,3.927Z" fill="#070304"/>
    <path id="パス_148" data-name="パス 148" d="M364.717,110c-.628,0-1.046-.413-.649-1.564l3.77-10.932H361.4l-2.565,7.45C356.49,109.179,354.735,110,354,110c-.581,0-.9-.437-.505-1.588L357.241,97.5h-6.434l-2.922,8.484c-2.022,2.584-4.269,4.012-6.147,4.012-1.254,0-2.527-.7-3.238-2.84,3.874-.453,6.281-2.616,7.108-5.015.971-2.829-.629-5.125-3.87-5.125-2.347,0-5.246,1.389-7.471,3.814l6.964-20.249h-6.437l-8.732,25.392c-1.888,2.456-3.992,4.023-5.318,4.023-.628,0-1.044-.364-.65-1.515l3.77-10.981H317.43l-.657,1.906a4.314,4.314,0,0,0-4.11-2.39c-4.113,0-8.277,3.409-9.916,8.1a11.664,11.664,0,0,0-.541,2.393,12.179,12.179,0,0,1-2.984,2.431c.848-1.578.544-3.7-.8-6.686-1.67-3.7-1.233-5.9-.291-7.009h-4.814c-1.839,3.118-3.855,6.266-5.664,8.869-.113.162-.223.309-.334.466-1.96,2.679-4.217,4.418-5.634,4.418-.628,0-1.088-.386-.654-1.546l2.3-6.165c1.083-2.9.238-5.269-2.713-5.269-2.509,0-5.135,1.455-7.409,3.94L274.4,97.5h-6.436l-2.935,8.518c-1.88,2.43-3.968,3.978-5.286,3.978-.629,0-1.046-.364-.65-1.515L262.863,97.5h-6.435l-.656,1.906a4.316,4.316,0,0,0-4.11-2.39c-4.114,0-8.278,3.409-9.917,8.1-1.748,5,.07,9.789,4.425,9.789a8.054,8.054,0,0,0,5.809-2.986c.1,1.911,1.306,2.986,3.481,2.986,2.712,0,5.4-1.51,7.753-3.619l-1.081,3.135h6.436l2.573-7.466c2.357-4.255,4.193-5.3,4.927-5.3.581,0,.942.459.509,1.619l-2.106,5.633c-1.428,3.818-.218,5.994,2.951,5.994,2.829,0,5.638-1.629,8.062-3.882a7.387,7.387,0,0,0,6.957,3.882,14.663,14.663,0,0,0,9.838-4.33c.531,2.532,2.231,4.33,4.892,4.33a8.058,8.058,0,0,0,5.811-2.986c.1,1.911,1.3,2.986,3.479,2.986,2.724,0,5.423-1.522,7.784-3.645l-1.087,3.161h6.434l2.67-7.759c1.086,6.023,3.042,8.243,6.04,8.243,2.4,0,5.375-1.657,8.024-4.022-.371,2.274.536,4.021,3.028,4.021,2.605,0,5.338-1.569,7.672-4.232-.413,2.684.8,4.232,3.409,4.232,4.549,0,9.049-4.205,11.976-8.459l-1.743-1.33C368.636,108.063,366.194,110,364.717,110Zm-111.95-1.865A4.109,4.109,0,0,1,249.678,110h0c-1.863,0-2.421-1.909-1.547-4.713.722-2.32,2.514-4.326,4.572-4.326a1.956,1.956,0,0,1,2.031,1.463ZM290.457,110a2.678,2.678,0,0,1-2.58-1.552c.539-.657,1.056-1.325,1.521-2l0,0c.937-1.335,1.887-2.734,2.754-4.107a15.794,15.794,0,0,0,.756,3.046C293.74,107.845,292.586,110,290.457,110Zm23.314-1.865A4.116,4.116,0,0,1,310.679,110h0c-1.862,0-2.421-1.909-1.547-4.713.722-2.32,2.515-4.326,4.573-4.326a1.955,1.955,0,0,1,2.031,1.463Zm19.419-3.195c2.074-2.989,4-3.98,5.379-3.98,1.259,0,1.594,1.16.968,2.418C338.743,104.975,336.058,105.775,333.19,104.936Z" fill="#070304"/>
    <path id="パス_149" data-name="パス 149" d="M392,84.11h-8.638l-4.45,19.965h2.83Z" fill="#070304"/>
    <path id="パス_150" data-name="パス 150" d="M379.129,106.758a5,5,0,0,0-4.741,4.06,3.4,3.4,0,0,0,3.434,4.085,4.914,4.914,0,0,0,4.72-4.085A3.356,3.356,0,0,0,379.129,106.758Z" fill="#070304"/>
  </g>
</svg>
