<svg xmlns="http://www.w3.org/2000/svg" width="400" height="164" viewBox="0 0 400 164">
  <g id="home-hero-logo" transform="translate(-102 -171)">
    <g id="歩こう見よう発見しよう" style="isolation: isolate">
      <g id="グループ_480" data-name="グループ 480" style="isolation: isolate">
        <path id="パス_130" data-name="パス 130" d="M192.016,201.8v3.062l.023,1.331v.044a3.014,3.014,0,0,1-3.351,2.907c-1.042,0-2.107-.156-2.107-1.132a.967.967,0,0,1,.91-1.02.765.765,0,0,1,.222.022,5.369,5.369,0,0,0,1.087.155c.665,0,1.087-.288,1.087-1.264v-4.1h-7.61a.943.943,0,1,1,0-1.886h2.573v-3.483a1.006,1.006,0,0,1,1.088-1.02,1.017,1.017,0,0,1,1.087,1.02v3.483h2.84v-5.5a1.028,1.028,0,0,1,1.064-1.087,1.065,1.065,0,0,1,1.11,1.087v1.509h4.681a.968.968,0,0,1,0,1.93h-4.681v2.063h7.277a.947.947,0,0,1,0,1.886Zm-9.251,6.19a1.186,1.186,0,0,1-1.22-1.132,1,1,0,0,1,.732-.909,9.4,9.4,0,0,0,3.86-2.951.9.9,0,0,1,.732-.377,1.2,1.2,0,0,1,1.154,1.132.962.962,0,0,1-.222.6C186.381,206.1,183.7,207.987,182.765,207.987Zm.932,5.458c-.289,0-.6-.023-.91-.023a1.032,1.032,0,0,1-.976-1.131c0-.533.288-1.02.843-1.02h.044c.511.021,1.021.021,1.487.021,5.213,0,8.7-1.153,10.338-5.058a.861.861,0,0,1,.822-.555,1.165,1.165,0,0,1,1.175,1.065.87.87,0,0,1-.088.4C194.479,211.515,190.419,213.445,183.7,213.445Zm14.687-6.5a12.212,12.212,0,0,0-3.971-2.374.9.9,0,0,1-.688-.843,1.035,1.035,0,0,1,1.065-.976,12.462,12.462,0,0,1,5.036,2.485,1.141,1.141,0,0,1,.355.843,1.172,1.172,0,0,1-1.065,1.2A1,1,0,0,1,198.384,206.944Z" fill="#fff"/>
        <path id="パス_131" data-name="パス 131" d="M215.711,211.981c-4.593,0-7.056-2.13-7.056-3.4a1.2,1.2,0,0,1,1.154-1.2,1.324,1.324,0,0,1,1,.555,5.226,5.226,0,0,0,4.216,1.685,15.386,15.386,0,0,0,3.771-.554,2.172,2.172,0,0,1,.511-.066,1.113,1.113,0,0,1,1.2,1.131,1.5,1.5,0,0,1-1.243,1.4A14.288,14.288,0,0,1,215.711,211.981Zm1.619-11.537a14.114,14.114,0,0,1-6.012-1.42,1.246,1.246,0,0,1-.732-1.132.971.971,0,0,1,1-1.02,1.847,1.847,0,0,1,.643.133,14.46,14.46,0,0,0,5.347,1.153,1.139,1.139,0,0,1,1.154,1.132C218.728,199.867,218.284,200.444,217.33,200.444Z" fill="#fff"/>
        <path id="パス_132" data-name="パス 132" d="M230.264,212.18a1,1,0,0,1,.644-.932c4.082-1.8,5.413-4.37,5.413-6.788,0-.622-.2-3.839-1.908-3.839a3.535,3.535,0,0,0-1.753.688,4.914,4.914,0,0,1-2.329,1,1.179,1.179,0,1,1-.111-2.351,4.838,4.838,0,0,0,1.508-.555,6.865,6.865,0,0,1,2.818-.71c3.9,0,3.994,5.28,3.994,5.724,0,5.946-6.19,8.941-7.1,8.941A1.2,1.2,0,0,1,230.264,212.18Zm5.591-15.331a10.188,10.188,0,0,1-4.3-.953,1.044,1.044,0,0,1-.6-.91,1,1,0,0,1,1.021-.977,1.626,1.626,0,0,1,.6.134,6.149,6.149,0,0,0,2.6.488c.267,0,.511,0,.776-.022h.09a1.018,1.018,0,0,1,1.131,1A1.219,1.219,0,0,1,235.855,196.849Z" fill="#fff"/>
        <path id="パス_133" data-name="パス 133" d="M248.633,213.245A1.077,1.077,0,0,1,247.5,212.2a1.014,1.014,0,0,1,1-1c2.884-.4,4.726-1.509,5.613-3.395a1.063,1.063,0,0,1,1-.666,1.165,1.165,0,0,1,1.177,1.044,1.083,1.083,0,0,1-.112.443C254.2,212.8,248.633,213.245,248.633,213.245Zm5.1-6.522a2.361,2.361,0,0,1-2.6-2.219c-.044-.976-.066-2.573-.066-4.127,0-1.575.022-3.106.066-3.971a2.246,2.246,0,0,1,2.441-2.174c1.02-.044,2.352-.044,3.727-.044,1.353,0,2.751,0,3.883.044a2.3,2.3,0,0,1,2.307,2.019c.044.976.067,2.4.067,3.86,0,1.62-.023,3.261-.067,4.349a2.368,2.368,0,0,1-2.418,2.263c-.377,0-.755.044-1.132.044-.022.887-.044,1.93-.044,2.64,0,1.22.266,1.509,2.174,1.509,1.708,0,2.773-.267,2.773-2.263a.988.988,0,0,1,1.043-1.043,1.112,1.112,0,0,1,1.176,1.2c0,3.816-2.574,4.1-5.1,4.1-2.241,0-4.171-.221-4.171-2.685,0-.6,0-2.262.022-3.46C256.443,206.767,255.023,206.744,253.736,206.723ZM261.5,199.6h-8.408v1.73H261.5Zm-.022-1.709c0-.333-.044-.643-.044-.887-.022-.577-.311-.91-1.043-.954-.732-.023-1.708-.044-2.751-.044-1.243,0-2.53.021-3.461.044a1.013,1.013,0,0,0-1.043.977c0,.243-.022.531-.022.864Zm-8.364,5.148c0,.332.022.62.022.887.022.71.422.954,1.065.976,1.021.045,2.13.066,3.261.066,1,0,2-.021,2.951-.066,1.065-.044,1.065-.865,1.065-1.863Z" fill="#fff"/>
        <path id="パス_134" data-name="パス 134" d="M279.271,212.336c-1.907,0-3.993-1.775-3.993-3.462,0-1.353,1.354-2.329,3.528-2.329a9.922,9.922,0,0,1,2.6.377c.023-.488.023-.976.023-1.375-.112-4.416-.222-6.345-.533-9.5v-.133A1.018,1.018,0,0,1,282,194.875a1.144,1.144,0,0,1,1.221,1.088c.044,1.13.088,2.2.133,3.305.222-.022.421-.045.6-.066a4.7,4.7,0,0,0,1.6-.622,1.445,1.445,0,0,1,.754-.244,1.244,1.244,0,0,1,1.243,1.176c0,1.109-2.019,1.686-4.149,1.841.022,1.154.022,2.441.022,3.971,0,.6,0,1.487-.044,2.33a10.239,10.239,0,0,1,2.6,1.664,1.437,1.437,0,0,1,.51,1.109,1.308,1.308,0,0,1-1.154,1.376,1.293,1.293,0,0,1-.954-.511,9.354,9.354,0,0,0-1.464-1.33A4.234,4.234,0,0,1,279.271,212.336Zm-.443-4.016c-1.287,0-1.487.466-1.487.754a1.8,1.8,0,0,0,1.8,1.309,2.105,2.105,0,0,0,1.953-1.509A5.551,5.551,0,0,0,278.828,208.32Z" fill="#fff"/>
        <path id="パス_135" data-name="パス 135" d="M298.373,212.18a1,1,0,0,1,.643-.932c4.082-1.8,5.414-4.37,5.414-6.788,0-.622-.2-3.839-1.909-3.839a3.528,3.528,0,0,0-1.752.688,4.916,4.916,0,0,1-2.33,1,1.179,1.179,0,1,1-.111-2.351,4.834,4.834,0,0,0,1.509-.555,6.865,6.865,0,0,1,2.818-.71c3.9,0,3.993,5.28,3.993,5.724,0,5.946-6.19,8.941-7.1,8.941A1.2,1.2,0,0,1,298.373,212.18Zm5.591-15.331a10.185,10.185,0,0,1-4.3-.953,1.045,1.045,0,0,1-.6-.91,1,1,0,0,1,1.021-.977,1.631,1.631,0,0,1,.6.134,6.146,6.146,0,0,0,2.6.488c.266,0,.51,0,.776-.022h.089a1.019,1.019,0,0,1,1.131,1A1.219,1.219,0,0,1,303.964,196.849Z" fill="#fff"/>
        <path id="パス_136" data-name="パス 136" d="M332.671,207.143l-4.148-.044c-.023,1.42-.023,2.618-.023,2.907.045.821.755.91,1.842.91,1.42,0,2.107-.355,2.107-1.664a.947.947,0,0,1,1.021-1,1.13,1.13,0,0,1,1.2,1.22c0,2.618-1.486,3.417-4.5,3.417-1.2,0-3.728-.022-3.728-2.573,0-.289,0-1.664.022-3.239l-2.4-.023c-.4,2.707-1.819,5.214-6.234,6.123a2.373,2.373,0,0,1-.377.045,1.082,1.082,0,0,1-1.154-1.11.937.937,0,0,1,.8-.976c3.35-.465,4.481-2.04,4.836-4.059l-3.527.065h-.022a.926.926,0,0,1-1.021-.953,1.018,1.018,0,0,1,1.043-1.065l3.683.022v-2.6h-.266a.978.978,0,0,1-.932-.51,11.536,11.536,0,0,1-3.994,2.13,1.06,1.06,0,0,1-1.02-1.087,1.018,1.018,0,0,1,.665-.954,15.3,15.3,0,0,0,7.1-5.9c0-.155-.133-.221-.355-.221-.821.021-1.864.044-3.128.044a.943.943,0,0,1,0-1.886h3.128c1.42,0,2.551.023,2.839,1.243a.8.8,0,0,1,.6.31c.288.333.576.665.887,1a12,12,0,0,0,1.642-1.931.841.841,0,0,1,.732-.422,1.2,1.2,0,0,1,1.154,1.11c0,.754-1.709,2.2-2.175,2.573.355.334.688.622,1.065.932a12.548,12.548,0,0,0,2.041-2.041.86.86,0,0,1,.71-.377,1.238,1.238,0,0,1,1.154,1.131c0,.489-.732,1.265-2.329,2.441a16.341,16.341,0,0,0,2.95,1.575,1.03,1.03,0,0,1,.71.932,1.21,1.21,0,0,1-1.242,1.154c-.91,0-2.663-1.154-4.06-2.263v.045a.961.961,0,0,1-1.043.975h-.355c0,.666-.022,1.6-.022,2.6l4.126-.022a1,1,0,0,1,1.065,1.02.965.965,0,0,1-1.042,1Zm-13.533-7.9a9.106,9.106,0,0,0-1.93-1.531.771.771,0,0,1-.444-.666,1.079,1.079,0,0,1,1.109-.976c.888,0,2.729,1.575,2.8,1.642a1.039,1.039,0,0,1,.288.687,1.207,1.207,0,0,1-1.153,1.155A.86.86,0,0,1,319.138,199.246Zm9.717,1.353a32.987,32.987,0,0,1-3.283-3.372,23.9,23.9,0,0,1-2.995,3.372Zm-2.374,4.548c0-1,0-1.93.023-2.6h-2.33v2.086c0,.177.023.332.023.51Z" fill="#fff"/>
        <path id="パス_137" data-name="パス 137" d="M343.364,213.245a1.078,1.078,0,0,1-1.132-1.043,1.015,1.015,0,0,1,1-1c2.884-.4,4.725-1.509,5.613-3.395a1.063,1.063,0,0,1,1-.666,1.164,1.164,0,0,1,1.176,1.044,1.081,1.081,0,0,1-.111.443C348.932,212.8,343.364,213.245,343.364,213.245Zm5.1-6.522a2.36,2.36,0,0,1-2.6-2.219c-.045-.976-.067-2.573-.067-4.127,0-1.575.022-3.106.067-3.971a2.245,2.245,0,0,1,2.44-2.174c1.021-.044,2.352-.044,3.727-.044,1.354,0,2.752,0,3.883.044a2.3,2.3,0,0,1,2.307,2.019c.045.976.067,2.4.067,3.86,0,1.62-.022,3.261-.067,4.349a2.367,2.367,0,0,1-2.418,2.263c-.377,0-.754.044-1.131.044-.022.887-.044,1.93-.044,2.64,0,1.22.265,1.509,2.174,1.509,1.708,0,2.773-.267,2.773-2.263a.988.988,0,0,1,1.043-1.043,1.111,1.111,0,0,1,1.175,1.2c0,3.816-2.573,4.1-5.1,4.1-2.241,0-4.171-.221-4.171-2.685,0-.6,0-2.262.022-3.46C351.173,206.767,349.753,206.744,348.467,206.723Zm7.765-7.122h-8.409v1.73h8.409Zm-.023-1.709c0-.333-.044-.643-.044-.887-.022-.577-.311-.91-1.043-.954-.732-.023-1.708-.044-2.751-.044-1.242,0-2.529.021-3.461.044a1.014,1.014,0,0,0-1.043.977c0,.243-.022.531-.022.864Zm-8.364,5.148c0,.332.022.62.022.887.023.71.422.954,1.065.976,1.021.045,2.13.066,3.262.066,1,0,2-.021,2.95-.066,1.065-.044,1.065-.865,1.065-1.863Z" fill="#fff"/>
        <path id="パス_138" data-name="パス 138" d="M375.777,212.136c-4.437,0-4.615-2.574-4.615-4.77,0-2.529.266-5.746.266-8.364a20.927,20.927,0,0,0-.133-2.529c0-.067-.022-.155-.022-.222a1.094,1.094,0,0,1,1.154-1.11,1.2,1.2,0,0,1,1.242,1.065q.067.732.067,1.6c0,2.729-.466,6.212-.466,9.186,0,1.819.089,2.928,2.285,2.928a15.248,15.248,0,0,0,5.3-1.154,1.788,1.788,0,0,1,.687-.155,1.043,1.043,0,0,1,1.088,1.065,1.528,1.528,0,0,1-1.088,1.4A17.3,17.3,0,0,1,375.777,212.136Z" fill="#fff"/>
        <path id="パス_139" data-name="パス 139" d="M395.3,212.336c-1.908,0-3.993-1.775-3.993-3.462,0-1.353,1.353-2.329,3.527-2.329a9.929,9.929,0,0,1,2.6.377c.022-.488.022-.976.022-1.375-.111-4.416-.222-6.345-.532-9.5v-.133a1.017,1.017,0,0,1,1.109-1.043,1.143,1.143,0,0,1,1.22,1.088c.045,1.13.089,2.2.133,3.305.222-.022.422-.045.6-.066a4.7,4.7,0,0,0,1.6-.622,1.444,1.444,0,0,1,.754-.244,1.243,1.243,0,0,1,1.242,1.176c0,1.109-2.018,1.686-4.148,1.841.022,1.154.022,2.441.022,3.971,0,.6,0,1.487-.044,2.33a10.232,10.232,0,0,1,2.6,1.664,1.437,1.437,0,0,1,.51,1.109,1.308,1.308,0,0,1-1.153,1.376,1.289,1.289,0,0,1-.954-.511,9.4,9.4,0,0,0-1.464-1.33A4.236,4.236,0,0,1,395.3,212.336Zm-.444-4.016c-1.286,0-1.486.466-1.486.754a1.8,1.8,0,0,0,1.8,1.309,2.105,2.105,0,0,0,1.953-1.509A5.555,5.555,0,0,0,394.856,208.32Z" fill="#fff"/>
        <path id="パス_140" data-name="パス 140" d="M414.4,212.18a1,1,0,0,1,.644-.932c4.082-1.8,5.413-4.37,5.413-6.788,0-.622-.2-3.839-1.908-3.839a3.528,3.528,0,0,0-1.752.688,4.916,4.916,0,0,1-2.33,1,1.179,1.179,0,1,1-.111-2.351,4.834,4.834,0,0,0,1.509-.555,6.857,6.857,0,0,1,2.817-.71c3.9,0,3.994,5.28,3.994,5.724,0,5.946-6.19,8.941-7.1,8.941A1.2,1.2,0,0,1,414.4,212.18Zm5.592-15.331a10.189,10.189,0,0,1-4.305-.953,1.046,1.046,0,0,1-.6-.91,1,1,0,0,1,1.021-.977,1.635,1.635,0,0,1,.6.134,6.146,6.146,0,0,0,2.6.488c.266,0,.51,0,.776-.022h.089a1.018,1.018,0,0,1,1.131,1A1.219,1.219,0,0,1,419.993,196.849Z" fill="#fff"/>
      </g>
    </g>
    <g id="グループ_483" data-name="グループ 483">
      <g id="グループ_481" data-name="グループ 481">
        <path id="パス_141" data-name="パス 141" d="M169.149,243l-49.875-71.083,1.4-.917,49.875,71.083Z" fill="#fff"/>
      </g>
      <g id="グループ_482" data-name="グループ 482">
        <path id="パス_142" data-name="パス 142" d="M434.851,243l49.875-71.083-1.4-.917-49.875,71.083Z" fill="#fff"/>
      </g>
    </g>
    <g id="グループ_484" data-name="グループ 484">
      <path id="パス_143" data-name="パス 143" d="M180.885,280.911,161.573,267c-7.619-5.485-16.278-9.778-27.031-9.778-14.461,0-26.92,7.843-31.086,20.783-5.619,17.461,5.924,31.052,19.205,31.052a18.605,18.605,0,0,0,4.194-.486l2.149-6.82c-.645.053-1.4.108-1.882.108-9.138,0-16.343-9.026-12.85-21.326,2.851-10.043,12.2-14.77,19.624-14.77a34.268,34.268,0,0,1,18.866,5.168L137.61,314.97c-2.7,7.834-6.887,11.757-11.831,11.757a12.274,12.274,0,0,1-5.431-1.342l-3.118,6.285c3.441,2.307,8.656,3.33,12.958,3.33,11.021,0,18.225-5.425,22.312-17.3l13.078-38,12.619,8.727Z" fill="#fff"/>
      <path id="パス_144" data-name="パス 144" d="M441.372,323.88c-1.4,0-2.326-.918-1.444-3.475l8.378-24.294h-14.3l-5.7,16.556c-5.218,9.4-9.118,11.213-10.751,11.213-1.291,0-2-.971-1.123-3.53l8.325-24.239h-14.3l-6.493,18.854c-4.492,5.742-9.487,8.915-13.658,8.915-2.788,0-5.617-1.553-7.2-6.312,8.609-1.007,13.958-5.813,15.8-11.144,2.157-6.285-1.4-11.388-8.6-11.388-5.218,0-11.659,3.086-16.6,8.475l15.474-45h-14.3l-19.4,56.428c-4.2,5.457-8.872,8.94-11.819,8.94-1.4,0-2.32-.808-1.444-3.367l8.378-24.4h-14.3l-1.459,4.235c-1.779-3.684-5.27-5.31-9.134-5.31-9.138,0-18.393,7.575-22.036,18a25.863,25.863,0,0,0-1.2,5.318,27.123,27.123,0,0,1-6.63,5.4c1.884-3.506,1.207-8.22-1.79-14.857-3.712-8.215-2.74-13.105-.646-15.575h-10.7c-4.086,6.927-8.567,13.923-12.587,19.708-.25.359-.495.686-.744,1.035-4.355,5.954-9.369,9.818-12.519,9.818-1.4,0-2.417-.858-1.454-3.435l5.118-13.7c2.407-6.445.531-11.708-6.028-11.708-5.575,0-11.412,3.233-16.464,8.755l2.648-7.68h-14.3l-6.523,18.928c-4.177,5.4-8.817,8.841-11.746,8.841-1.4,0-2.323-.808-1.444-3.367l8.38-24.4h-14.3l-1.457,4.235c-1.782-3.684-5.272-5.31-9.133-5.31-9.142,0-18.4,7.575-22.039,18-3.884,11.118.158,21.753,9.834,21.753,4.979,0,9.373-2.772,12.908-6.637.229,4.248,2.9,6.637,7.737,6.637,6.026,0,12-3.356,17.228-8.043l-2.4,6.968h14.3l5.719-16.593c5.236-9.455,9.318-11.768,10.947-11.768,1.292,0,2.1,1.02,1.132,3.6l-4.68,12.519c-3.173,8.485-.483,13.32,6.559,13.32,6.285,0,12.527-3.62,17.915-8.627,3.2,5.763,8.416,8.627,15.459,8.627,8.352,0,15.78-4.013,21.863-9.624,1.181,5.629,4.958,9.624,10.871,9.624,4.982,0,9.375-2.772,12.913-6.637.226,4.248,2.9,6.637,7.732,6.637,6.053,0,12.05-3.382,17.3-8.1l-2.415,7.024h14.3l5.932-17.243c2.415,13.383,6.761,18.318,13.422,18.318,5.325,0,11.945-3.683,17.832-8.939-.824,5.054,1.192,8.936,6.729,8.936,5.79,0,11.863-3.487,17.05-9.4-.919,5.965,1.774,9.4,7.574,9.4,10.11,0,20.11-9.345,26.613-18.8l-3.873-2.955C450.08,319.584,444.653,323.88,441.372,323.88Zm-248.778-4.143c-2.073,2.635-4.414,4.145-6.866,4.145v0c-4.139,0-5.38-4.243-3.438-10.473,1.606-5.155,5.588-9.613,10.16-9.613a4.344,4.344,0,0,1,4.514,3.251Zm83.754,4.143a5.952,5.952,0,0,1-5.733-3.449c1.2-1.46,2.347-2.944,3.381-4.447l-.007-.006c2.082-2.966,4.192-6.075,6.12-9.127a34.93,34.93,0,0,0,1.68,6.768C283.644,319.1,281.08,323.88,276.348,323.88Zm51.809-4.143c-2.078,2.635-4.414,4.145-6.871,4.145v0c-4.136,0-5.38-4.243-3.438-10.473,1.606-5.155,5.59-9.613,10.162-9.613a4.344,4.344,0,0,1,4.515,3.251Zm43.154-7.1c4.609-6.642,8.887-8.845,11.952-8.845,2.8,0,3.544,2.578,2.153,5.373C383.652,312.722,377.683,314.5,371.311,312.636Z" fill="#fff"/>
      <path id="パス_145" data-name="パス 145" d="M502,266.355H482.8l-9.889,44.367H479.2Z" fill="#fff"/>
      <path id="パス_146" data-name="パス 146" d="M473.4,316.684a11.1,11.1,0,0,0-10.535,9.023,7.559,7.559,0,0,0,7.632,9.078,10.92,10.92,0,0,0,10.488-9.078C481.78,320.767,478.505,316.684,473.4,316.684Z" fill="#fff"/>
    </g>
  </g>
</svg>
