<svg xmlns="http://www.w3.org/2000/svg" width="192" height="30" viewBox="0 0 192 30">
  <g id="post-bg" transform="translate(-317 -558)">
    <rect id="長方形_145" data-name="長方形 145" width="192" height="30" transform="translate(317 558)" fill="none"/>
    <path id="多角形_1" data-name="多角形 1" d="M339.311,566.725,332.1,588,317,569.352Z" fill="#ffff29"/>
    <path id="多角形_2" data-name="多角形 2" d="M425.967,558l7.418,21.212L410,573.814Z" fill="#ffff7c"/>
    <g id="グループ_33" data-name="グループ 33">
      <path id="パス_115" data-name="パス 115" d="M381.516,583.088l2.049-1.493.14-.9-3.086,2.25Z" fill="#73cbd6"/>
      <path id="パス_116" data-name="パス 116" d="M379.138,582.716l4.8-3.5.14-.9-5.836,4.255Z" fill="#73cbd6"/>
      <path id="パス_117" data-name="パス 117" d="M376.759,582.343l7.55-5.5.14-.9-8.586,6.259Z" fill="#73cbd6"/>
      <path id="パス_118" data-name="パス 118" d="M374.381,581.97l10.3-7.508.14-.9-11.337,8.264Z" fill="#73cbd6"/>
      <path id="パス_119" data-name="パス 119" d="M372.005,581.6l13.05-9.513.14-.9-14.088,10.269Z" fill="#73cbd6"/>
      <path id="パス_120" data-name="パス 120" d="M369.627,581.224l15.8-11.518.14-.9-16.839,12.274Z" fill="#73cbd6"/>
      <path id="パス_121" data-name="パス 121" d="M367.249,580.851,385.8,567.329l.14-.9-19.589,14.279Z" fill="#73cbd6"/>
      <path id="パス_122" data-name="パス 122" d="M364.871,580.479l21.3-15.528.14-.9-22.338,16.288Z" fill="#73cbd6"/>
    </g>
    <g id="グループ_34" data-name="グループ 34">
      <path id="パス_115-2" data-name="パス 115-2" d="M476.08,570.535l-2.384-.864-.822.385,3.591,1.3Z" fill="#73cbd6"/>
      <path id="パス_116-2" data-name="パス 116-2" d="M477.1,572.714l-5.585-2.024-.822.385,6.791,2.461Z" fill="#73cbd6"/>
      <path id="パス_117-2" data-name="パス 117-2" d="M478.122,574.9l-8.785-3.183-.822.385,9.991,3.62Z" fill="#73cbd6"/>
      <path id="パス_118-2" data-name="パス 118-2" d="M479.142,577.076l-11.985-4.344-.822.385,13.192,4.781Z" fill="#73cbd6"/>
      <path id="パス_119-2" data-name="パス 119-2" d="M480.161,579.255l-15.185-5.5-.821.385,16.392,5.941Z" fill="#73cbd6"/>
      <path id="パス_120-2" data-name="パス 120-2" d="M481.181,581.436,462.8,574.772l-.822.385,19.593,7.1Z" fill="#73cbd6"/>
      <path id="パス_121-2" data-name="パス 121-2" d="M482.2,583.616l-21.585-7.824-.822.385,22.792,8.261Z" fill="#73cbd6"/>
      <path id="パス_122-2" data-name="パス 122-2" d="M483.222,585.8l-24.786-8.983-.822.385,26,9.417Z" fill="#73cbd6"/>
    </g>
  </g>
</svg>
