<svg xmlns="http://www.w3.org/2000/svg" width="72.54" height="70.736" viewBox="0 0 72.54 70.736">
  <path id="ranking-bg" d="M-298.46,1469.531l-8.219,6.406,4.633,9.336-10.191,2.191.123,10.423-10.135-2.432-4.412,9.443-8.07-6.6-8.07,6.6-4.412-9.443-10.135,2.431.124-10.423-10.191-2.191,4.633-9.336-8.219-6.406,8.219-6.406-4.633-9.336,10.191-2.192-.123-10.423,10.135,2.431,4.412-9.443,8.07,6.6,8.07-6.6,4.412,9.443,10.135-2.432-.124,10.423,10.191,2.191-4.633,9.336Z" transform="translate(371 -1434.163)" fill="#ffff7c"/>
</svg>
