<svg xmlns="http://www.w3.org/2000/svg" width="80" height="80" viewBox="0 0 80 80">
  <g id="side-titleshape" transform="translate(646 -908)">
    <path id="パス_71" data-name="パス 71" d="M-486,914c0,3.375-4.981,6.05-5.813,9.163-.861,3.22,2.09,8.022.458,10.842-1.655,2.86-7.3,2.7-9.625,5.016s-2.156,7.97-5.016,9.625c-2.82,1.632-7.622-1.319-10.842-.459-3.112.832-5.788,5.813-9.162,5.813s-6.05-4.981-9.163-5.813c-3.22-.861-8.022,2.09-10.842.459-2.86-1.655-2.695-7.3-5.016-9.625s-7.97-2.156-9.625-5.016c-1.632-2.82,1.319-7.622.458-10.842C-561.019,920.05-566,917.375-566,914s4.981-6.05,5.813-9.163c.861-3.22-2.09-8.022-.458-10.842,1.655-2.86,7.3-2.695,9.625-5.016s2.156-7.97,5.016-9.625c2.82-1.632,7.622,1.319,10.842.458,3.112-.832,5.788-5.813,9.162-5.813s6.05,4.981,9.163,5.813c3.22.861,8.022-2.09,10.842-.458,2.86,1.655,2.695,7.3,5.016,9.625s7.97,2.156,9.625,5.016c1.632,2.82-1.319,7.622-.458,10.842C-490.981,907.95-486,910.625-486,914Z" transform="translate(-80 34)"/>
  </g>
</svg>
